<svg width="110" height="110" viewBox="0 0 110 110" fill="none" xmlns="http://www.w3.org/2000/svg">
<path d="M55.3564 1.13672C55.9548 1.13672 56.5509 1.14681 57.1445 1.16602C68.5564 1.53516 79.0785 5.42384 87.6611 11.7822C101.02 21.6794 109.68 37.559 109.68 55.4609C109.68 73.3626 101.02 89.2416 87.6611 99.1387C79.0785 105.497 68.5564 109.386 57.1445 109.755C56.5509 109.774 55.9548 109.784 55.3564 109.784C55.2671 109.784 55.1772 109.784 55.0879 109.783C43.0906 109.725 32.0133 105.778 23.0508 99.1387C9.69167 89.2416 1.03238 73.3626 1.03223 55.4609C1.03223 37.559 9.69155 21.6794 23.0508 11.7822C32.0133 5.14242 43.0906 1.19566 55.0879 1.1377C55.1772 1.13726 55.2671 1.13672 55.3564 1.13672Z" stroke="white" stroke-opacity="0.16" stroke-width="0.431763"/>
<rect width="90.4595" height="52.0462" transform="translate(10.127 29.4375)" fill="#0A0D14"/>
<path d="M42.4168 48.7861H40.6515L39.5551 46.0359H33.3857L32.2893 48.7861H30.5239L35.5041 36.3915H37.4181L42.4168 48.7861ZM39.0905 44.6608L36.4704 37.9896L33.8316 44.6608H39.0905ZM45.208 48.7861H43.6656V36.3915H45.208V48.7861ZM53.6122 49.0091C50.0443 49.0091 47.2383 46.4076 47.2383 42.5981C47.2383 38.7887 50.0443 36.1871 53.6122 36.1871C55.8049 36.1871 57.3287 37.2463 58.3136 38.64L57.0128 39.3647C56.3066 38.3241 55.0244 37.5622 53.6122 37.5622C50.8991 37.5622 48.8364 39.6435 48.8364 42.5981C48.8364 45.5342 50.8991 47.634 53.6122 47.634C55.0244 47.634 56.3066 46.8907 57.0128 45.8315L58.3322 46.5562C57.2915 47.9685 55.8049 49.0091 53.6122 49.0091ZM61.4686 48.7861H59.9262V36.3915H64.9064C67.3964 36.3915 68.7901 38.1011 68.7901 40.1266C68.7901 42.1521 67.3593 43.8617 64.9064 43.8617H61.4686V48.7861ZM64.7205 42.4866C66.1886 42.4866 67.192 41.5203 67.192 40.1266C67.192 38.7329 66.1886 37.7666 64.7205 37.7666H61.4686V42.4866H64.7205ZM79.638 48.7861H77.8727L76.7763 46.0359H70.6069L69.5105 48.7861H67.7451L72.7253 36.3915H74.6393L79.638 48.7861ZM76.3118 44.6608L73.6916 37.9896L71.0529 44.6608H76.3118Z" fill="white" fill-opacity="0.5"/>
<path d="M36.82 73.3578C34.6644 73.3578 33.0849 72.5401 32.0628 71.388L32.9734 70.2173C33.791 71.1278 35.129 71.9826 36.8757 71.9826C39.0871 71.9826 39.7932 70.7934 39.7932 69.8456C39.7932 66.6494 32.4531 68.4148 32.4531 63.9921C32.4531 61.948 34.2742 60.5543 36.7085 60.5543C38.6039 60.5543 40.072 61.1861 41.1126 62.2825L40.1835 63.416C39.2543 62.394 37.9535 61.9294 36.597 61.9294C35.1104 61.9294 34.0512 62.7285 34.0512 63.8992C34.0512 66.6866 41.3913 65.0885 41.3913 69.7156C41.3913 71.5181 40.1649 73.3578 36.82 73.3578ZM48.9719 73.3578C45.2925 73.3578 42.821 70.6075 42.821 66.9467C42.821 63.286 45.2925 60.5357 48.9719 60.5357C52.6327 60.5357 55.1227 63.286 55.1227 66.9467C55.1227 70.6075 52.6327 73.3578 48.9719 73.3578ZM48.9719 71.9826C51.7407 71.9826 53.5246 69.8271 53.5246 66.9467C53.5246 64.0478 51.7407 61.9108 48.9719 61.9108C46.1845 61.9108 44.4191 64.0478 44.4191 66.9467C44.4191 69.8271 46.1845 71.9826 48.9719 71.9826ZM63.0324 73.3578C59.4646 73.3578 56.6586 70.7562 56.6586 66.9467C56.6586 63.1373 59.4646 60.5357 63.0324 60.5357C65.2252 60.5357 66.749 61.5949 67.7338 62.9886L66.4331 63.7134C65.7269 62.6727 64.4447 61.9108 63.0324 61.9108C60.3194 61.9108 58.2567 63.9921 58.2567 66.9467C58.2567 69.8828 60.3194 71.9826 63.0324 71.9826C64.4447 71.9826 65.7269 71.2393 66.4331 70.1801L67.7524 70.9048C66.7118 72.3171 65.2252 73.3578 63.0324 73.3578ZM77.4113 73.1348H68.9005V71.9083C73.3603 68.3962 75.7761 66.3335 75.7761 64.1965C75.7761 62.617 74.4753 61.9294 73.1931 61.9294C71.7065 61.9294 70.5543 62.5612 69.8296 63.4904L68.8819 62.5055C69.8296 61.2604 71.4463 60.5543 73.1931 60.5543C75.2558 60.5543 77.3556 61.725 77.3556 64.1965C77.3556 66.7237 74.7912 69.028 71.3348 71.7596H77.4113V73.1348Z" fill="white" fill-opacity="0.5"/>
</svg>
