<svg width="221" height="223" viewBox="0 0 221 223" fill="none" xmlns="http://www.w3.org/2000/svg">
<path d="M93.706 0.698223C94.8522 0.698223 95.8718 0.556021 95.9707 0.379815C96.0912 0.166512 98.7112 0.104685 103.772 0.194334C107.965 0.268526 112.16 0.413819 113.093 0.515834C114.026 0.617848 116.532 0.846607 118.655 1.02281C120.78 1.20211 123.351 1.48033 124.37 1.64726C125.39 1.81111 128.449 2.29954 131.168 2.72614C133.886 3.15584 138.685 4.1327 141.827 4.89935C144.972 5.6691 149.211 6.90254 151.25 7.64137C153.289 8.3833 156.277 9.54564 157.893 10.2288C159.509 10.9089 162.289 12.1424 164.072 12.9678C165.855 13.79 169.609 15.6881 172.414 17.1843C175.219 18.6805 178.346 20.3932 179.366 20.9898C180.385 21.5895 182.61 22.9992 184.309 24.1275C186.008 25.2527 188.65 27.0859 190.179 28.1957C191.709 29.3086 193.238 30.4493 193.578 30.7306C193.918 31.0119 195.24 32.0753 196.513 33.0924C197.789 34.1125 200.502 36.5238 202.541 38.4559C204.583 40.3879 207.45 43.2196 208.912 44.7498C210.373 46.28 213.114 49.2694 215.001 51.3962C216.889 53.52 218.354 55.3995 218.255 55.5695C218.156 55.7395 217.637 55.4459 217.102 54.9172C216.568 54.3917 215.505 53.5571 214.736 53.0624C213.969 52.5709 213.064 51.9897 212.727 51.7733C212.391 51.5539 210.864 50.7718 209.335 50.0329C207.806 49.2941 205.124 48.0792 203.375 47.3373C201.626 46.5954 200.205 45.9184 200.218 45.8318C200.23 45.7452 199.297 45.2723 198.144 44.7776C196.992 44.2799 195.911 43.7761 195.741 43.6493C195.571 43.5257 193.695 42.7219 191.57 41.8594C189.447 40.9969 185.9 39.6553 183.691 38.8763C181.482 38.1003 178.145 37.0338 176.276 36.5083C174.407 35.9859 170.792 35.1048 168.243 34.5515C165.694 33.9981 162.357 33.3242 160.828 33.0491C159.299 32.7771 156.864 32.4123 155.421 32.2392C153.978 32.0661 150.014 31.76 146.616 31.5622C141.91 31.287 138.889 31.287 133.948 31.5591C130.38 31.7569 125.863 32.131 123.907 32.3876C121.954 32.6472 119.242 33.0769 117.882 33.3428C116.523 33.6117 114.091 34.0971 112.475 34.4217C110.86 34.7493 109.055 35.1419 108.459 35.2965C107.866 35.4511 105.641 36.0724 103.516 36.6814C101.393 37.2904 97.7781 38.4682 95.4825 39.2967C93.19 40.1252 89.6431 41.4761 87.604 42.2953C85.5648 43.1145 80.8377 45.3279 77.0993 47.2167C73.3608 49.1055 69.885 50.9325 69.3752 51.2818C68.8654 51.6311 67.197 52.6575 65.6677 53.5632C64.1383 54.469 61.3051 56.2651 59.3741 57.5542C57.44 58.8432 55.3545 60.2343 54.7397 60.6455C54.1217 61.0566 51.7427 62.8063 49.4471 64.5344C47.1546 66.2625 43.9569 68.7695 42.341 70.105C40.7282 71.4435 37.7437 74.0032 35.7107 75.7992C33.6777 77.5953 31.1071 79.9231 27.9743 82.8784L27.0906 82.3622C26.6025 82.0778 25.7003 81.2215 25.0824 80.4548C24.4645 79.6912 23.7662 78.8566 23.5345 78.6C23.2997 78.3465 22.3728 76.8163 21.4675 75.1995C20.5654 73.5858 19.5829 71.6352 19.2863 70.8717C18.9896 70.1081 18.4212 68.853 18.0226 68.0894C17.624 67.3259 17.1019 66.0028 16.8609 65.1527C16.6199 64.3026 16.2121 62.5621 15.9587 61.2885C15.7054 60.0118 15.3532 57.9251 15.1771 56.6515C14.9979 55.3779 14.6487 52.0361 14.3985 49.2323C14.1451 46.4284 13.7929 41.0711 13.6168 37.3306C13.4376 33.5901 13.2244 29.5219 13.141 28.2884C13.0514 26.9437 12.866 26.109 12.6806 26.2018C12.5107 26.2883 12.3748 26.0441 12.3779 25.6608C12.3779 25.2775 12.4829 24.82 12.6096 24.6407C12.7332 24.4644 13.9474 23.67 15.3068 22.8786C16.6663 22.0872 19.864 20.4426 22.413 19.2215C24.9619 18.0005 28.5088 16.3837 30.2915 15.6325C32.0773 14.8782 34.8579 13.7808 36.4707 13.1934C38.0866 12.603 39.6839 11.9909 40.0238 11.8332C40.3637 11.6725 42.3812 10.9677 44.5037 10.2659C46.6294 9.56419 50.3122 8.43894 52.6912 7.76503C55.0703 7.09111 59.3803 5.98751 62.2691 5.3105C65.1579 4.63659 68.5657 3.87612 69.8386 3.62572C71.1147 3.37223 75.0076 2.75396 78.4896 2.25008C81.9716 1.74619 86.3527 1.19284 88.2219 1.01663C90.0911 0.840424 92.5597 0.698223 93.706 0.698223Z" stroke="white" stroke-width="0.308962"/>
<path d="M173.165 48.0729C172.584 44.6292 172.192 41.6646 172.297 41.4853C172.405 41.306 172.856 41.2287 173.301 41.3122C173.749 41.3956 174.948 41.5533 175.967 41.6615C176.987 41.7697 180.184 42.1901 183.073 42.5951C185.962 43.0031 190.689 43.8842 193.578 44.555C196.467 45.2258 199.664 46.0543 200.684 46.3974C201.704 46.7375 204.067 47.6711 205.936 48.4686C207.806 49.2662 209.959 50.2523 210.725 50.6604C211.492 51.0684 212.391 51.5754 212.727 51.7856C213.061 51.9959 214.105 52.6729 215.045 53.2911C215.981 53.9063 217.028 54.7039 217.368 55.0625C217.708 55.4211 218.091 55.6467 218.218 55.5633C218.344 55.4829 218.866 55.9373 220.306 57.7334L220.3 63.7615C220.297 67.0785 220.158 71.8763 219.991 74.4266C219.824 76.977 219.475 81.2894 219.213 84.0098C218.95 86.7302 218.607 89.5804 218.446 90.347C218.289 91.1137 217.794 94.035 217.349 96.8388C216.905 99.6427 216.12 103.748 215.61 105.958C215.097 108.169 214.43 110.951 214.13 112.141C213.83 113.331 213.077 116.045 212.452 118.169C211.831 120.296 210.824 123.495 210.216 125.279C209.604 127.063 208.492 130.126 207.741 132.08C206.99 134.034 205.974 136.541 205.485 137.645C204.994 138.748 204.249 140.489 203.829 141.509C203.409 142.529 201.784 145.868 200.218 148.928C198.651 151.988 196.726 155.621 195.938 157.003C195.151 158.381 193.912 160.468 193.186 161.64C192.463 162.808 191.696 164.045 191.489 164.385C191.279 164.725 190.794 165.454 190.411 166.008C190.028 166.561 189.716 167.151 189.716 167.321C189.716 167.491 189.595 167.665 189.447 167.708C189.299 167.751 188.675 168.552 188.06 169.485C187.442 170.419 186.416 171.9 185.78 172.771C185.14 173.643 183.784 175.439 182.764 176.762C181.745 178.082 180.639 179.526 180.308 179.968C179.977 180.407 178.735 181.882 177.549 183.242C176.359 184.602 174.546 186.58 173.514 187.638C172.358 188.822 171.524 189.455 171.333 189.288C171.163 189.137 170.329 188.88 169.479 188.713C168.629 188.547 165.92 187.836 163.454 187.134C160.989 186.432 158.696 185.727 158.356 185.573C158.016 185.415 156.286 184.825 154.513 184.265C152.739 183.702 151.247 183.069 151.191 182.855C151.139 182.642 151.485 182.018 151.964 181.464C152.443 180.911 153.438 179.486 154.179 178.296C154.921 177.105 156.243 174.88 157.12 173.35C157.998 171.819 159.555 168.83 160.578 166.703C161.603 164.579 162.549 162.493 162.679 162.066C162.805 161.643 163.025 161.154 163.161 160.984C163.297 160.814 164.05 159.006 164.832 156.965C165.617 154.925 166.865 151.447 167.61 149.237C168.351 147.027 169.596 142.853 170.372 139.963C171.15 137.073 172.331 131.997 172.998 128.68C173.662 125.363 174.558 119.73 174.988 116.16C175.417 112.589 175.952 107.999 176.177 105.958C176.452 103.464 176.585 97.9424 176.585 89.1105C176.585 80.4145 176.449 74.7172 176.183 72.2627C175.961 70.2224 175.43 65.3535 175.003 61.443C174.577 57.5324 173.749 51.5167 173.165 48.0729Z" stroke="white" stroke-width="0.308962"/>
<path d="M11.1204 28.4028C11.1142 28.3378 11.2996 27.8061 11.5375 27.2188C11.7723 26.6314 12.177 26.1492 12.4335 26.1492C12.7888 26.1492 12.9494 26.6778 13.0977 28.3409C13.2059 29.5435 13.4376 33.59 13.6168 37.3305C13.7929 41.0711 14.1451 46.4284 14.3985 49.2322C14.6487 52.0361 14.9979 55.3747 15.174 56.6514C15.3501 57.9251 15.8413 60.6393 16.2677 62.6795C16.691 64.7198 17.3769 67.9905 17.7909 69.9442C18.2018 71.8979 19.0885 75.4468 19.759 77.8271C20.4294 80.2074 21.4212 83.475 21.9619 85.0918C22.5026 86.7085 23.6272 89.7659 24.4583 91.8927C25.2894 94.0165 26.1668 96.1742 26.4078 96.6843C26.6488 97.1944 27.8136 99.5592 28.9969 101.94C30.1772 104.32 31.8332 107.448 32.6767 108.895C33.5201 110.342 34.7529 112.385 35.4172 113.436C36.0814 114.49 37.0392 115.95 37.5459 116.682C38.0526 117.415 39.443 119.319 40.6355 120.911C41.8281 122.503 43.0825 124.185 43.4224 124.649C43.7622 125.109 44.8065 126.377 45.7396 127.462C46.6758 128.547 48.2731 130.334 49.2927 131.431C50.3122 132.528 52.6758 134.943 54.545 136.794C56.4142 138.649 58.4843 140.606 59.1486 141.147C59.8097 141.685 61.2001 142.872 62.2382 143.784C63.2732 144.696 65.9303 146.795 68.1394 148.449C70.3484 150.103 73.4782 152.347 75.0941 153.435C76.7131 154.526 78.7985 155.89 79.7285 156.462C80.6616 157.033 81.8078 157.766 82.2744 158.085C82.7409 158.403 83.158 158.663 83.2013 158.659C83.2445 158.656 84.9469 159.602 86.9861 160.765C89.0252 161.927 93.2642 164.134 96.4094 165.671C99.5546 167.21 102.681 168.713 103.361 169.015C104.041 169.315 106.197 170.252 108.15 171.093C110.103 171.937 113.999 173.467 116.801 174.496C119.603 175.526 122.665 176.633 123.598 176.96C124.531 177.285 126.827 178.017 128.696 178.589C130.565 179.158 132.719 179.835 133.485 180.089C134.251 180.342 136.126 180.899 137.656 181.325C139.185 181.752 143.912 182.964 148.161 184.015C152.409 185.069 158.248 186.401 161.137 186.976C164.026 187.548 167.489 188.265 168.836 188.568C170.18 188.868 171.327 189.254 171.379 189.424C171.435 189.595 171.376 189.879 171.249 190.055C171.126 190.231 169.834 191.415 168.379 192.683C166.924 193.95 165.36 195.301 164.903 195.684C164.446 196.068 162.787 197.332 161.214 198.498C159.642 199.66 158.01 200.794 157.584 201.017C157.161 201.237 156.74 201.518 156.657 201.635C156.574 201.756 155.322 202.612 153.876 203.543C152.43 204.47 150.555 205.629 149.705 206.118C148.856 206.609 147.187 207.546 145.998 208.204C144.808 208.863 142.306 210.136 140.437 211.033C138.567 211.933 135.438 213.305 133.485 214.09C131.532 214.872 128.541 215.991 126.842 216.576C125.143 217.163 122.986 217.859 122.053 218.118C121.12 218.381 118.197 219.095 115.565 219.704C112.933 220.313 108.552 221.111 105.833 221.476C101.971 221.992 99.2302 222.14 93.3198 222.153C86.7482 222.168 85.6173 222.1 84.7461 221.639C84.193 221.349 83.0808 220.619 82.2744 220.016C81.468 219.417 79.0148 217.571 76.8212 215.92C74.6307 214.27 70.6698 211.12 68.0158 208.922C65.3649 206.721 61.3885 203.302 59.1795 201.317C56.9704 199.335 53.0095 195.567 50.374 192.946C47.7386 190.324 43.9847 186.373 42.0259 184.166C40.0701 181.956 37.6386 179.161 36.619 177.949C35.6026 176.741 34.2153 175.016 33.5356 174.119C32.8559 173.223 31.9444 172.054 31.5088 171.529C31.0763 171 29.791 169.281 28.6509 167.708C27.5139 166.134 26.5839 164.709 26.5839 164.539C26.5839 164.369 26.4789 164.196 26.3522 164.153C26.2255 164.11 25.345 162.892 24.3965 161.448C23.448 160.004 22.0422 157.775 21.2698 156.502C20.4974 155.225 19.4747 153.488 18.9927 152.638C18.5139 151.787 17.6426 150.186 17.0556 149.083C16.4685 147.979 15.2605 145.611 14.3738 143.827C13.487 142.044 12.313 139.536 11.7692 138.263C11.2254 136.986 10.5612 135.459 10.2924 134.862C10.0236 134.266 9.25735 132.25 8.5869 130.38C7.91954 128.51 6.77638 125.032 6.04723 122.652C5.31808 120.271 4.43445 117.143 4.08223 115.696C3.72692 114.249 3.0194 110.982 2.50343 108.431C1.98747 105.881 1.35101 101.918 1.08839 99.6211C0.82577 97.3242 0.473553 92.6655 0.306714 89.2651C0.102798 85.1505 0.102799 81.0143 0.312893 76.8997C0.482822 73.4992 0.841218 68.8406 1.10693 66.5437C1.37263 64.2469 1.86697 61.0473 2.20374 59.4336C2.54051 57.8169 2.95761 55.6622 3.13372 54.6421C3.30983 53.6219 3.77636 51.4642 4.16874 49.8505C4.56421 48.2337 5.522 44.827 6.29749 42.2767C7.07299 39.7263 8.27485 36.0384 8.96692 34.0846C9.659 32.1278 10.4283 30.0783 10.6786 29.5249C10.9319 28.9716 11.1297 28.4677 11.1204 28.4028Z" stroke="white" stroke-width="0.308962"/>
<path fill-rule="evenodd" clip-rule="evenodd" d="M109.38 52.0144C109.553 52.0144 109.849 52.3977 110.038 52.8645C110.226 53.3313 111.026 55.8013 113.251 62.9887L118.939 63.1432C122.331 63.236 124.664 63.4215 124.717 63.6069C124.766 63.777 123.261 65.097 121.37 66.5437C119.48 67.9905 117.456 69.5887 115.809 71.0261L116.789 74.5812C117.329 76.5349 118.04 78.9369 118.367 79.9138C118.695 80.8906 118.964 81.9015 118.964 82.155C118.964 82.4085 118.825 82.6187 118.655 82.6187C118.485 82.6187 117.199 81.7438 115.797 80.6742C114.394 79.6077 112.899 78.4886 112.475 78.1919C112.049 77.8951 111.215 77.3047 110.622 76.8811C110.025 76.4576 109.401 76.1145 109.231 76.1238C109.061 76.1299 106.976 77.5891 104.597 79.3666C102.218 81.1441 100.098 82.6032 99.8852 82.6063C99.6535 82.6156 99.5701 82.4023 99.6782 82.0777C99.7771 81.7809 100.482 79.3789 101.248 76.7451C102.014 74.1082 102.709 71.7433 102.796 71.4898C102.891 71.2085 102.505 70.6614 101.813 70.0987C101.186 69.5887 99.1963 67.9905 97.395 66.5437C95.5938 65.097 94.1107 63.777 94.1046 63.6069C94.0984 63.4184 96.3044 63.2298 99.808 63.1247C102.95 63.0319 105.558 62.9268 105.601 62.8928C105.644 62.8619 105.752 62.4508 105.845 61.984C105.938 61.5172 106.58 59.3934 107.273 57.2697C107.968 55.1428 108.654 53.0933 108.799 52.71C108.944 52.3266 109.207 52.0144 109.38 52.0144V52.0144ZM147.774 94.0937C149.091 94.0721 151.108 94.2699 152.254 94.5296C153.401 94.7893 154.89 95.3117 155.563 95.6889C156.234 96.066 157.108 96.8605 157.501 97.4571C158.078 98.3258 158.217 98.9502 158.211 100.626C158.202 102.394 158.088 102.842 156.694 104.413L155.517 103.729C154.868 103.352 153.472 102.623 152.409 102.106C150.972 101.408 150.042 101.167 148.779 101.167C147.811 101.167 146.514 101.411 145.766 101.736C145.025 102.054 143.888 102.966 143.158 103.822C142.327 104.793 141.663 106.008 141.305 107.195C140.888 108.574 140.745 110.079 140.749 113.068C140.749 116.03 140.888 117.495 141.271 118.633C141.561 119.483 142.405 120.874 143.149 121.724C144.187 122.905 144.861 123.372 146.023 123.706C146.987 123.981 148.337 124.083 149.705 123.99C151.519 123.863 152.276 123.619 156.907 121.106L157.565 121.724C158.128 122.253 158.22 122.686 158.211 124.738C158.205 126.608 158.066 127.338 157.584 128.061C157.207 128.627 156.212 129.335 155.035 129.876C153.972 130.364 152.375 130.921 151.482 131.113C150.589 131.304 148.921 131.462 147.774 131.465C146.628 131.468 144.923 131.326 143.99 131.15C143.057 130.973 141.456 130.445 140.437 129.972C139.417 129.499 137.909 128.494 137.084 127.737C136.259 126.979 135.129 125.594 134.566 124.661C134.007 123.727 133.241 121.987 132.867 120.797C132.37 119.205 132.144 117.529 132.023 114.459C131.897 111.275 131.977 109.662 132.37 107.659C132.678 106.073 133.367 104.051 134.1 102.558C134.77 101.198 135.913 99.4788 136.642 98.7369C137.369 97.9981 138.66 96.9378 139.51 96.3813C140.359 95.8249 141.75 95.151 142.599 94.8882C143.449 94.6223 144.422 94.3441 144.762 94.2668C145.102 94.1896 146.458 94.1123 147.774 94.0937V94.0937ZM63.6996 94.6749L70.71 94.6811C75.4124 94.6842 78.3784 94.8233 79.7255 95.1077C80.8316 95.3395 82.5679 95.9485 83.5875 96.4648C84.6071 96.981 86.053 97.9363 86.7976 98.5885C87.5422 99.2408 88.6885 100.681 89.3404 101.785C90.0294 102.957 90.8018 104.892 91.188 106.422C91.7657 108.706 91.8306 109.612 91.6854 113.378C91.5865 115.94 91.3116 118.463 91.0088 119.56C90.7276 120.58 89.949 122.355 89.2817 123.502C88.5247 124.803 87.4001 126.148 86.2909 127.072C85.3146 127.888 83.6802 128.874 82.6606 129.264C81.641 129.653 79.9047 130.167 78.7986 130.405C77.4577 130.689 74.6647 130.834 63.9684 130.844L62.4236 129.298L62.3927 112.799C62.3587 96.3071 62.3587 96.304 63.0292 95.4879L63.6996 94.6749ZM70.4041 112.889L70.4535 124.197C75.746 123.882 77.2476 123.619 78.1807 123.211C78.9469 122.877 80.0406 122.126 80.6153 121.545C81.1899 120.964 81.9067 120.002 82.2064 119.406C82.5061 118.812 82.9263 117.421 83.1395 116.314C83.3712 115.102 83.4608 113.143 83.365 111.368C83.2579 109.412 82.9819 107.867 82.537 106.731C82.1446 105.736 81.329 104.505 80.5658 103.757C79.6966 102.908 78.6956 102.307 77.5627 101.955C76.6297 101.668 74.7512 101.355 73.3917 101.266C72.0323 101.173 70.7934 101.207 70.6358 101.34C70.4721 101.479 70.3763 106.348 70.4041 112.889V112.889ZM109.695 94.7553C115.268 94.848 117.243 94.9871 118.191 95.3519C118.871 95.6147 120.054 96.2484 120.817 96.7616C121.584 97.2716 122.619 98.2299 123.122 98.8884C123.626 99.5469 124.287 100.746 124.59 101.553C124.973 102.573 125.143 103.896 125.146 105.881C125.149 107.495 124.951 109.418 124.695 110.286C124.448 111.136 123.716 112.589 123.07 113.51C122.427 114.432 121.136 115.711 120.2 116.351C119.266 116.991 117.666 117.733 116.646 117.999C115.627 118.265 113.473 118.586 108.922 118.942L108.613 130.38L107.378 130.794C106.667 131.032 105.274 131.165 104.093 131.103C102.576 131.026 101.875 130.84 101.381 130.38C100.716 129.762 100.716 129.762 100.726 113.455C100.732 102.889 100.849 96.8512 101.059 96.2979C101.235 95.8311 101.619 95.2653 101.909 95.0397C102.32 94.7213 104.004 94.6594 109.695 94.7553ZM108.867 106.901L108.922 111.832C113.316 111.736 114.039 111.591 114.638 111.124C115.065 110.793 115.689 110.144 116.029 109.686C116.467 109.09 116.674 108.252 116.739 106.787C116.81 105.26 116.69 104.444 116.276 103.652C115.97 103.062 115.234 102.304 114.638 101.967C113.943 101.575 112.772 101.309 111.351 101.222C109.639 101.117 109.108 101.185 108.978 101.525C108.885 101.77 108.833 104.187 108.867 106.901ZM88.6854 140.866C89.4516 140.928 90.5268 141.203 91.0798 141.475C91.88 141.873 92.084 142.164 92.084 142.9C92.084 143.41 91.9449 143.898 91.775 143.982C91.6051 144.068 90.9439 143.858 90.3074 143.518C89.671 143.178 88.7533 142.9 88.2683 142.9C87.6689 142.9 87.051 143.246 86.3373 143.982C85.3548 144.996 85.293 145.184 85.364 146.909C85.4196 148.254 85.6081 148.928 86.0592 149.401C86.4578 149.821 87.1128 150.072 87.913 150.109C89.1334 150.164 89.1488 150.152 89.2261 149.005C89.3002 147.902 89.257 147.843 88.2992 147.769C87.4063 147.701 87.2858 147.58 87.1406 145.682H89.4578C91.2436 145.682 91.8121 145.79 91.9295 146.146C92.016 146.402 92.084 147.722 92.084 151.556L90.9253 152.053C90.1282 152.396 89.1241 152.517 87.706 152.44C86.26 152.362 85.3949 152.146 84.8079 151.71C84.3475 151.37 83.6771 150.699 83.3156 150.22C82.846 149.593 82.6266 148.764 82.537 147.283C82.4412 145.648 82.5525 144.915 83.0777 143.75C83.606 142.588 84.0139 142.161 85.0551 141.697C85.778 141.373 86.5782 141.03 86.8316 140.931C87.088 140.832 87.9222 140.801 88.6854 140.866V140.866ZM96.8729 141.2L97.0273 145.373H100.426L100.58 141.2H103.052L103.129 146.687C103.207 152.149 103.204 152.177 102.511 152.359C102.128 152.461 101.504 152.461 101.121 152.359C100.478 152.189 100.426 152.001 100.426 147.537H97.0273L96.9501 149.747C96.8945 151.302 96.7369 152.047 96.4094 152.26C96.1561 152.43 95.5629 152.48 94.2467 152.174L94.1942 146.817C94.1664 143.87 94.2652 141.36 94.4166 141.237C94.5649 141.116 95.1798 141.057 96.8729 141.2ZM111.085 141.2L112.043 143.982C112.568 145.512 113.078 146.974 113.177 147.228C113.273 147.484 113.643 148.631 113.996 149.778C114.351 150.928 114.57 152.004 114.484 152.174C114.4 152.344 113.844 152.483 113.248 152.483C112.265 152.483 112.111 152.359 110.931 149.701H109.231C107.538 149.701 107.532 149.704 107.18 150.86C106.985 151.5 106.67 152.124 106.485 152.248C106.296 152.372 105.864 152.474 105.524 152.474C105.184 152.474 104.733 152.372 104.52 152.248C104.217 152.069 104.239 151.692 104.619 150.474C104.881 149.623 105.209 148.721 105.345 148.464C105.481 148.211 105.975 146.749 106.441 145.218C106.911 143.688 107.421 142.118 107.578 141.725C107.832 141.091 108.036 141.023 111.085 141.2V141.2ZM108.641 146.687C108.465 147.812 108.487 147.846 109.386 147.846C109.896 147.846 110.313 147.744 110.31 147.614C110.31 147.487 110.171 146.863 110.001 146.223C109.834 145.586 109.562 145.064 109.401 145.064C109.241 145.064 109.043 145.169 108.966 145.296C108.888 145.425 108.743 146.05 108.641 146.687ZM117.79 141.045C118.513 141.045 119.155 141.255 119.461 141.586C119.733 141.886 120.394 143.002 120.929 144.071C121.463 145.141 122.072 146.01 122.285 146.004C122.554 145.997 122.696 145.259 122.826 141.2L125.143 141.045V152.174L121.951 152.019L120.691 149.497C119.996 148.106 119.251 146.786 119.035 146.56C118.72 146.226 118.645 146.659 118.649 148.851C118.655 150.913 118.54 151.667 118.17 152.019C117.901 152.276 117.45 152.486 117.166 152.489C116.881 152.492 116.47 152.319 116.254 152.103C115.976 151.825 115.846 150.276 115.806 146.749C115.763 142.826 115.84 141.71 116.183 141.416C116.421 141.212 117.144 141.045 117.79 141.045V141.045ZM133.306 141.2L135.107 146.455C136.096 149.345 136.831 151.886 136.741 152.097C136.649 152.31 136.191 152.483 135.725 152.48C135.258 152.477 134.668 152.341 134.412 152.18C134.158 152.016 133.797 151.429 133.615 150.869C133.296 149.914 133.185 149.852 131.684 149.778C130.086 149.701 130.086 149.704 129.546 150.959C129.246 151.658 128.73 152.294 128.387 152.39C128.047 152.483 127.525 152.474 127.228 152.369C126.932 152.26 126.688 151.896 126.688 151.556C126.688 151.216 127.398 148.888 128.267 146.378C129.135 143.87 129.991 141.639 130.17 141.419C130.374 141.166 131.022 141.051 133.306 141.2ZM130.735 147.249C130.71 147.716 130.911 147.846 131.631 147.846C132.166 147.846 132.561 147.682 132.564 147.46C132.567 147.249 132.428 146.622 132.255 146.068C132.082 145.518 131.798 145.064 131.625 145.064C131.452 145.064 131.189 145.422 131.038 145.858C130.89 146.294 130.754 146.922 130.735 147.249V147.249Z" stroke="white" stroke-width="0.308962"/>
</svg>
