<svg width="110" height="110" viewBox="0 0 110 110" fill="none" xmlns="http://www.w3.org/2000/svg">
<path d="M54.9463 0.21582C55.5446 0.215826 56.1407 0.225914 56.7344 0.245117C68.1463 0.614261 78.6683 4.50294 87.251 10.8613C100.61 20.7585 109.27 36.6381 109.27 54.54C109.269 72.4417 100.61 88.3207 87.251 98.2178C78.6683 104.576 68.1463 108.465 56.7344 108.834C56.1407 108.853 55.5446 108.863 54.9463 108.863C54.8569 108.863 54.767 108.863 54.6777 108.862C42.6805 108.804 31.6031 104.858 22.6406 98.2178C9.28151 88.3207 0.622228 72.4417 0.62207 54.54C0.62207 36.6382 9.28139 20.7585 22.6406 10.8613C31.6031 4.22152 42.6805 0.274757 54.6777 0.216797C54.767 0.216366 54.8569 0.21582 54.9463 0.21582Z" stroke="white" stroke-opacity="0.16" stroke-width="0.431763"/>
<path d="M51.8231 62.3509C52.0847 62.194 52.3986 62.1242 52.7124 62.1242C52.9565 62.1242 53.2007 62.1765 53.4099 62.2811C53.6366 62.3858 53.8284 62.5427 53.9853 62.7171L54.5607 62.1416C54.3341 61.8627 54.0551 61.6534 53.7412 61.5139C53.3576 61.357 52.9565 61.2872 52.5381 61.3047C52.1196 61.3221 51.7185 61.4442 51.3698 61.636C50.9862 61.8627 50.6723 62.1765 50.4456 62.5776C50.2189 62.9961 50.1143 63.4494 50.1143 63.9202C50.1143 64.391 50.2189 64.8444 50.4456 65.2628C50.6549 65.6465 50.9687 65.9778 51.3523 66.2044C51.7534 66.4311 52.2068 66.5532 52.6601 66.5357C53.0263 66.5357 53.3925 66.466 53.7412 66.3265C54.0551 66.187 54.3515 65.9603 54.5607 65.6988L53.9853 65.1234C53.8284 65.3152 53.6366 65.4721 53.4099 65.5767C53.1832 65.6813 52.9391 65.7336 52.695 65.7336C52.3811 65.7336 52.0847 65.6639 51.8057 65.507C51.5441 65.35 51.3349 65.1408 51.1954 64.8792C51.0559 64.6002 50.9687 64.2689 50.9687 63.9551C50.9687 63.6412 51.0385 63.3274 51.1954 63.0309C51.3523 62.7345 51.5616 62.5078 51.8231 62.3509ZM50.9339 56.4572H53.375V58.6368H54.2469V53.5452H53.375V55.6377H50.9339V53.5452H50.062V58.6368H50.9339V56.4572ZM55.328 58.6368H56.1998V53.5452H55.328V58.6368ZM59.9313 53.7719C59.6 53.615 59.2338 53.5452 58.8677 53.5627H57.2983V58.6368H58.1702V57.1721H58.8677C59.2338 57.1721 59.6 57.1024 59.9313 56.9629C60.2277 56.8234 60.4719 56.6141 60.6288 56.3351C60.7857 56.0387 60.8729 55.7074 60.8729 55.3761C60.8729 55.0448 60.7857 54.7135 60.6288 54.4171C60.4719 54.1207 60.2277 53.9114 59.9313 53.7719ZM59.6872 56.1085C59.4954 56.2828 59.199 56.37 58.8153 56.37H58.1702V54.3473H58.8153C59.199 54.3473 59.4954 54.4345 59.6872 54.6089C59.879 54.7833 59.9836 55.0274 59.9836 55.3587C59.9836 55.69 59.8964 55.9341 59.6872 56.1085ZM68.5103 53.5627L66.1563 58.6368H67.1502L67.6733 57.4685H70.2888L70.8119 58.6368H71.8233L69.4693 53.5452H68.5103V53.5627ZM68.0046 56.7188L68.9811 54.5043L69.9575 56.7188H68.0046ZM59.1466 61.636C58.7456 61.4093 58.2922 61.3047 57.8214 61.3047C57.3506 61.3047 56.9147 61.4267 56.4962 61.636C56.1126 61.8627 55.7813 62.1765 55.5721 62.5776C55.3454 62.9961 55.2408 63.4494 55.2408 63.9202C55.2408 64.391 55.3628 64.8444 55.5721 65.2628C55.7813 65.6465 56.1126 65.9778 56.4962 66.2044C56.8973 66.4311 57.3506 66.5357 57.8214 66.5357C58.2922 66.5357 58.7282 66.4137 59.1466 66.2044C59.5303 65.9778 59.8441 65.6639 60.0708 65.2628C60.2975 64.8444 60.4021 64.391 60.4021 63.9202C60.4021 63.4494 60.28 62.9961 60.0708 62.5776C59.8441 62.1765 59.5303 61.8627 59.1466 61.636ZM59.2861 64.8269C59.1466 65.0885 58.9374 65.3152 58.6933 65.4721C58.4317 65.629 58.1353 65.6988 57.8389 65.6988C57.5425 65.6988 57.246 65.6116 56.9845 65.4721C56.7229 65.3152 56.5137 65.1059 56.3916 64.8269C56.2521 64.5479 56.1649 64.2341 56.1649 63.9028C56.1649 63.5715 56.2347 63.275 56.3916 62.9786C56.5311 62.7171 56.7404 62.4904 56.9845 62.3334C57.246 62.1765 57.5425 62.1068 57.8389 62.1068C58.1353 62.1068 58.4317 62.194 58.6933 62.3334C58.9548 62.4904 59.1641 62.6996 59.2861 62.9786C59.4256 63.2576 59.5128 63.5715 59.5128 63.9028C59.5128 64.2341 59.4256 64.5479 59.2861 64.8269ZM88.9289 61.3744V62.1765H90.5157V66.466H91.4049V62.1765H92.9917V61.3744H88.9289ZM87.5165 64.8095L84.8835 61.3744H84.1512V66.466H85.0405V63.0309L87.6734 66.466H88.4058V61.3744H87.5165V64.8095ZM65.5111 61.3744L64.029 64.0771L62.512 61.3744H61.4134V66.466H62.355V62.9437L64.0115 65.8731L65.7029 62.8914V66.4486H66.6445V61.357H65.5111V61.3744ZM70.3237 61.5837C69.9924 61.4267 69.6088 61.357 69.2426 61.3744H67.6559V66.466H68.5451V65.0013H69.2426C69.6088 65.0013 69.9924 64.9315 70.3237 64.7921C70.6201 64.6526 70.8643 64.4433 71.0386 64.1643C71.1956 63.8679 71.2827 63.5366 71.2827 63.2053C71.2827 62.874 71.1956 62.5427 71.0386 62.2463C70.8643 61.9498 70.6201 61.7232 70.3237 61.5837ZM70.0796 63.9376C69.8878 64.112 69.5914 64.1992 69.1903 64.1992H68.5277V62.1765H69.1903C69.5739 62.1765 69.8703 62.2637 70.0796 62.4381C70.2714 62.6124 70.376 62.8566 70.376 63.1879C70.3935 63.5017 70.2888 63.7633 70.0796 63.9376ZM64.4823 57.4685L65.0055 58.6368H66.0168L63.6628 53.5452H62.7038L60.3672 58.6368H61.3611L61.8842 57.4685H64.4823ZM63.192 54.5043L64.1685 56.7188H62.2155L63.192 54.5043ZM72.9916 61.3744H72.1023V66.466H75.485V65.6639H72.9916V61.3744ZM76.2174 66.4486H77.1067V61.357H76.2174V66.4486ZM40.4717 72.1853C40.4891 73.4059 40.5066 74.2952 40.524 74.7311C40.5415 74.7834 40.5415 74.8532 40.524 74.9055C40.524 74.9752 40.524 75.0275 40.524 75.0275C40.524 75.2716 40.5589 75.5158 40.6286 75.7424C40.6984 75.5158 40.7333 75.2716 40.7333 75.0275C40.7333 74.9403 40.7681 73.6674 40.8204 71.6273C40.803 71.6448 40.7856 71.6622 40.7856 71.6796C40.6635 71.8366 40.5589 72.0109 40.4717 72.1853ZM36.8448 46.7274C37.1238 46.431 37.3854 46.0822 37.5772 45.7161C37.4377 46.0299 36.8971 47.2156 37.4202 47.3203C37.9957 47.4249 38.6408 47.2505 39.8091 45.7684C39.7742 43.8677 39.7394 42.2112 39.7219 40.9558H39.0942C39.0593 40.9558 39.0419 40.9558 39.007 40.9558C38.6583 40.9558 38.0828 40.9209 37.6992 40.3455C37.2807 39.7178 37.2633 39.0726 37.2459 38.6018C37.2284 37.9218 37.0541 36.6837 36.1997 35.9863C35.6068 35.5155 34.0026 35.1493 32.5205 35.7421C32.0322 35.934 31.0558 36.4396 30.0967 36.9104C29.2249 37.3463 28.1089 37.8869 27.7602 37.8869C28.3356 37.6253 29.1028 37.2417 29.9398 36.7709C30.8988 36.2478 31.9102 35.6898 32.4158 35.4806C33.4272 35.0795 35.3627 34.9575 36.3566 35.7596C37.2982 36.5268 37.49 37.852 37.5074 38.5669C37.5249 39.0377 37.5423 39.6131 37.9085 40.1886C38.2398 40.6768 38.7629 40.6768 39.0768 40.6768H39.1465H39.7045C39.7045 40.5199 39.7045 40.3804 39.7045 40.2234C39.1465 40.2583 38.3444 40.2932 37.9957 39.5434C37.5772 38.6367 38.0305 36.3176 36.6356 35.3411C35.2406 34.3646 33.0087 34.6087 31.0209 35.7596C29.0505 36.893 26.435 38.3751 23.2092 39.6655C19.9833 40.9558 17.9781 41.4789 17.5945 41.5312C17.2283 41.6009 17.8909 41.8451 19.2684 41.8799C20.6459 41.9148 21.7968 41.8102 21.7968 41.8102L31.9102 37.2068C31.9102 37.2068 23.1917 41.5486 22.4594 42.0194C21.727 42.4902 21.1342 42.6472 21.1865 43.0831C21.2388 43.519 21.7968 43.4667 23.3312 43.4318C24.8657 43.397 25.197 43.2575 25.7201 43.1005C26.2432 42.9436 31.9102 40.3281 31.9102 40.3281C31.9102 40.3281 25.8421 43.3446 24.9703 44.0421C24.0984 44.7396 25.04 44.9663 25.6329 44.9837C26.2432 45.0011 27.8648 44.914 28.7715 44.4606C29.6783 44.0072 32.503 42.1938 32.503 42.1938C32.503 42.1938 29.7131 44.1991 29.1726 44.6524C28.7367 45.0186 28.51 45.3325 28.6146 45.7161C28.7715 46.2043 29.6085 46.152 30.7245 45.7509C30.7245 45.7509 31.8753 45.3499 32.3112 44.9663C32.7471 44.5652 33.9677 43.4841 33.9677 43.4841C33.9677 43.4841 32.5205 44.9837 32.1543 45.6289C31.8056 46.274 31.7358 46.431 31.9102 46.7972C32.1543 47.3203 34.0026 46.7797 34.5257 46.2217C34.9093 45.7858 35.2755 45.3325 35.6068 44.8442C35.6068 44.8442 35.0488 45.7509 34.9268 46.274C34.8047 46.7972 34.6652 47.2156 35.1709 47.268C35.7289 47.3551 36.252 47.3726 36.8448 46.7274ZM40.2973 58.6019C40.3496 58.5671 40.402 58.5322 40.4543 58.4973C40.5589 58.4276 40.6461 58.3753 40.7158 58.3055C40.8553 58.2183 40.9948 58.1137 41.1343 58.0265C41.1517 57.0326 41.1866 56.0213 41.2041 55.0274C40.9251 54.9053 40.6286 54.7833 40.3148 54.6612C40.2973 54.6612 40.2799 54.6438 40.2625 54.6438C40.2276 54.6263 40.2102 54.6263 40.1753 54.6089C39.966 54.5391 39.7742 54.452 39.5475 54.3822C39.286 54.2776 39.0244 54.1904 38.7629 54.0858C37.0192 55.0099 36.6705 55.4459 36.6705 56.3003C36.6705 57.5034 37.6992 58.044 39.4778 59.1774C39.7568 58.9681 40.0358 58.7763 40.2973 58.6019ZM38.1526 56.4572C38.1526 56.4572 38.0305 55.69 40.0009 54.8007C40.0532 54.7833 40.1055 54.7484 40.1578 54.731C40.1753 55.9341 40.1927 57.1372 40.2276 58.3404C39.2511 57.6778 38.1526 57.0501 38.1526 56.4572ZM41.1343 71.2611C41.0471 71.3658 40.9599 71.4704 40.8728 71.5576C41.3784 72.2376 41.3436 72.9002 41.0646 73.7546C41.3261 73.4582 41.8492 72.7084 41.4133 71.7319C41.3261 71.575 41.2389 71.4181 41.1343 71.2611ZM40.3322 64.112C40.524 64.3038 40.7507 64.5305 40.9774 64.7572C41.1169 64.8967 41.2564 65.0362 41.4133 65.1931C41.4307 65.2105 41.4656 65.228 41.5005 65.2628C42.6862 64.2341 43.7673 63.2576 43.7673 62.037C43.7673 61.078 42.8431 60.2061 41.919 59.5087C41.8318 59.561 41.7446 59.6133 41.6574 59.683C41.4482 59.8225 41.2564 59.9446 41.082 60.0666C41.082 60.0666 41.0646 60.0666 41.0646 60.0841C41.0297 60.119 40.9774 60.1364 40.9425 60.1713C40.6984 60.3456 40.4717 60.5026 40.2625 60.6595C40.2973 61.8278 40.3148 62.996 40.3322 64.112ZM41.082 60.2585C42.2328 61.0954 42.6862 61.636 42.6862 62.2288C42.6862 62.8391 42.041 63.554 40.9948 64.6002C41.0123 63.2053 41.0471 61.758 41.082 60.2585ZM47.4465 43.5016C47.4465 43.5016 48.6671 44.5827 49.103 44.9837C49.5389 45.3848 50.6897 45.7684 50.6897 45.7684C51.8057 46.1694 52.6427 46.2217 52.7996 45.7335C52.9217 45.3499 52.6775 45.0186 52.2416 44.6698C51.7011 44.2165 48.9112 42.2112 48.9112 42.2112C48.9112 42.2112 51.736 44.0247 52.6427 44.478C53.5494 44.9314 55.171 45.0186 55.7813 45.0012C56.3916 44.9837 57.3158 44.757 56.4439 44.0596C55.5721 43.3621 49.504 40.3455 49.504 40.3455C49.504 40.3455 55.1536 42.9785 55.6941 43.118C56.2172 43.2749 56.5485 43.397 58.083 43.4493C59.6174 43.4841 60.158 43.5364 60.2277 43.1005C60.2975 42.682 59.6872 42.5251 58.9548 42.0369C58.2225 41.5661 49.504 37.2243 49.504 37.2243L59.6174 41.8276C59.6174 41.8276 60.7683 41.9323 62.1458 41.8974C63.5233 41.8625 64.1859 41.6184 63.8197 41.5486C63.4536 41.4789 61.4309 40.9732 58.2051 39.6829C54.9792 38.3926 52.3637 36.9279 50.3933 35.777C48.4229 34.6436 46.1736 34.3821 44.7786 35.3585C43.3837 36.335 43.837 38.6367 43.4185 39.5608C43.0698 40.3106 42.2677 40.2757 41.7097 40.2409C41.7097 40.3804 41.7097 40.5373 41.6923 40.6942H42.2677H42.3375C42.6513 40.6942 43.1744 40.6942 43.5057 40.206C43.8719 39.648 43.8893 39.0552 43.9068 38.5844C43.9242 37.8695 44.116 36.5442 45.0576 35.777C46.0515 34.9749 47.987 35.097 48.9984 35.498C49.504 35.6898 50.5154 36.2478 51.4744 36.7884C52.3114 37.2592 53.0786 37.6428 53.654 37.9043C53.2878 37.9043 52.1893 37.3638 51.3175 36.9279C50.3759 36.4396 49.3994 35.9514 48.8937 35.7596C47.4116 35.1667 45.8074 35.5329 45.2145 36.0037C44.3427 36.7012 44.1858 37.9392 44.1683 38.6192C44.1509 39.09 44.1335 39.7526 43.715 40.3629C43.3488 40.9383 42.7734 40.9732 42.4072 40.9732C42.3723 40.9732 42.3549 40.9732 42.32 40.9732H41.6923C41.6574 42.2287 41.6225 43.8678 41.5877 45.7335C42.7734 47.2505 43.4534 47.4423 44.0114 47.3203C44.5345 47.2156 44.0114 46.0299 43.8545 45.7161C44.0637 46.0822 44.3078 46.4135 44.5868 46.7274C45.1622 47.3726 45.7028 47.3551 46.2259 47.2854C46.749 47.2156 46.5921 46.8146 46.47 46.2915C46.3479 45.7684 45.79 44.8617 45.79 44.8617C46.1213 45.3325 46.4874 45.8032 46.8711 46.2392C47.3942 46.7972 49.2425 47.3551 49.4866 46.8146C49.6435 46.4659 49.5912 46.2915 49.2425 45.6463C48.9112 45.0011 47.4465 43.5016 47.4465 43.5016ZM40.7333 38.1659C41.0123 38.1659 41.2912 38.0787 41.5179 37.9218C41.7446 37.7648 41.9364 37.5381 42.041 37.294C42.1457 37.0325 42.1805 36.7535 42.1282 36.4745C42.0759 36.1955 41.9364 35.9514 41.7446 35.7421C41.5528 35.5503 41.2912 35.4108 41.0123 35.3585C40.7333 35.3062 40.4543 35.3237 40.1927 35.4457C39.9312 35.5503 39.7045 35.7421 39.565 35.9688C39.4081 36.1955 39.3209 36.4745 39.3209 36.7535C39.3209 36.9453 39.3557 37.1197 39.4255 37.294C39.4952 37.4684 39.5999 37.6253 39.7394 37.7474C39.8789 37.8869 40.0183 37.9915 40.1927 38.0613C40.3496 38.131 40.5415 38.1659 40.7333 38.1659ZM45.3715 48.7675C45.3715 48.7675 45.3366 47.7911 43.7498 47.6864C42.1282 47.5818 42.0585 48.2793 42.0933 48.5408C42.2154 48.5408 42.32 48.5757 42.32 48.6106C42.32 48.6455 42.2328 48.6803 42.1282 48.6803C42.2154 48.9419 42.4595 49.2558 43.157 49.6045C43.7324 49.8835 44.0114 49.866 44.3427 49.8137C44.3427 49.8137 44.7263 50.0404 44.7263 50.4066C44.7263 50.7553 44.116 51.4354 41.2564 52.8652C41.4307 45.1581 41.5877 38.3926 41.5877 38.3926H41.762C41.8318 38.3926 41.9015 38.3577 41.9538 38.3054C42.0062 38.2531 42.041 38.1833 42.041 38.1136V38.0264C42.041 37.9915 42.041 37.9566 42.0236 37.9218C42.0062 37.8869 41.9887 37.852 41.9538 37.8346C41.7969 38.0089 41.6225 38.1484 41.4133 38.2531C41.2041 38.3577 40.9774 38.3926 40.7507 38.3926C40.524 38.3926 40.2973 38.3402 40.0881 38.2531C39.8789 38.1659 39.687 38.0089 39.5475 37.8346C39.5127 37.8694 39.4952 37.8869 39.4778 37.9218C39.4604 37.9566 39.4604 37.9915 39.4604 38.0264V38.1136C39.4604 38.1833 39.4952 38.2531 39.5475 38.3054C39.5999 38.3577 39.6696 38.3926 39.7394 38.3926H39.9137C39.9137 38.3926 40.0358 44.9663 40.1578 52.5339C40.402 52.656 40.6461 52.778 40.9251 52.9175C40.9599 52.9349 41.0123 52.9524 41.0471 52.9698C41.6923 53.2837 42.2328 53.5452 42.6862 53.7894C44.2206 53.1965 45.7202 52.5165 46.1736 51.5574C46.9757 49.7789 45.3715 48.7675 45.3715 48.7675ZM43.2442 48.3665C43.0698 48.3665 42.9303 48.2793 42.9303 48.1747C42.9303 48.07 43.0698 47.9829 43.2442 47.9829C43.4185 47.9829 43.558 48.07 43.558 48.1747C43.558 48.2793 43.4185 48.3665 43.2442 48.3665ZM40.4717 70.4416C40.6112 70.2672 40.7333 70.0929 40.8728 69.9359C40.8902 68.942 40.9251 67.8261 40.9425 66.6229C40.7681 66.4486 40.5763 66.2742 40.3671 66.0824C40.2973 66.0301 40.245 65.9603 40.1753 65.908C40.0881 65.8208 40.0009 65.7511 39.9137 65.6813C39.4255 66.1347 38.4665 67.146 38.4665 68.0179C38.4665 69.0467 39.4604 70.0929 40.2102 70.8427C40.2799 70.6857 40.3671 70.5637 40.4717 70.4416ZM40.3671 66.2916C40.402 67.7738 40.4194 69.1338 40.4368 70.3021C39.8614 69.5349 39.2511 68.7502 39.2511 68.2097C39.2511 67.704 39.5475 67.1286 40.3671 66.2916ZM40.7681 53.1442C37.3679 51.5051 36.6705 50.7553 36.6705 50.3892C36.6705 50.023 37.0541 49.7963 37.0541 49.7963C37.3854 49.8661 37.6644 49.8661 38.2398 49.5871C38.9373 49.2558 39.1814 48.9245 39.2686 48.6629C39.1639 48.6629 39.0768 48.628 39.0768 48.5932C39.0768 48.5583 39.1814 48.5234 39.3034 48.5234V48.506C39.3209 48.2444 39.2337 47.5644 37.6295 47.669C36.0427 47.7736 36.0079 48.7501 36.0079 48.7501C36.0079 48.7501 34.4037 49.7789 35.2406 51.5226C35.973 53.0744 39.4081 53.894 41.3959 54.7833C43.3662 55.6725 43.2442 56.4398 43.2442 56.4398C43.2442 57.1024 41.919 57.7998 40.8728 58.5322C39.8265 59.2645 37.6121 60.5374 37.6121 62.037C37.6121 63.4145 38.9896 64.4782 40.3322 65.6639C41.6923 66.8496 42.1282 67.5645 42.1282 68.2271C42.1282 69.1338 40.6286 70.3544 39.8614 71.8714C39.0942 73.3885 40.6112 75.7424 40.1404 74.5044C39.6522 73.2664 39.9137 72.3945 40.5415 71.5227C41.3087 70.4591 42.9477 69.4128 42.9477 68.0004C42.9477 66.8147 41.2215 65.4198 41.2215 65.4198C39.687 63.8853 38.7106 63.0135 38.7106 62.2463C38.7106 61.479 39.4429 60.799 41.5005 59.4564C43.5406 58.1311 44.7438 57.608 44.7438 56.3177C44.7438 55.1843 44.1683 54.7833 40.7681 53.1442ZM38.1526 48.0003C38.327 48.0003 38.4665 48.0875 38.4665 48.1921C38.4665 48.2967 38.327 48.3839 38.1526 48.3839C37.9782 48.3839 37.8387 48.2967 37.8387 48.1921C37.8387 48.0875 37.9782 48.0003 38.1526 48.0003ZM80.1407 61.3744L77.7867 66.466H78.7806L79.3037 65.2977H81.9193L82.4424 66.466H83.4537L81.0997 61.3744H80.1407ZM79.635 64.5479L80.6115 62.3334L81.588 64.5479H79.635Z" fill="white" fill-opacity="0.5"/>
</svg>
