<svg width="110" height="110" viewBox="0 0 110 110" fill="none" xmlns="http://www.w3.org/2000/svg">
<path d="M54.54 0.21582C55.1384 0.215826 55.7345 0.225914 56.3281 0.245117C67.74 0.614261 78.2621 4.50294 86.8447 10.8613C100.204 20.7585 108.863 36.6381 108.863 54.54C108.863 72.4417 100.204 88.3207 86.8447 98.2178C78.2621 104.576 67.74 108.465 56.3281 108.834C55.7345 108.853 55.1384 108.863 54.54 108.863C54.4507 108.863 54.3608 108.863 54.2715 108.862C42.2742 108.804 31.1969 104.858 22.2344 98.2178C8.87526 88.3207 0.215978 72.4417 0.21582 54.54C0.21582 36.6382 8.87514 20.7585 22.2344 10.8613C31.1969 4.22152 42.2742 0.274757 54.2715 0.216797C54.3608 0.216366 54.4507 0.21582 54.54 0.21582Z" stroke="white" stroke-opacity="0.16" stroke-width="0.431763"/>
<path d="M54.5403 0.21582C55.1388 0.21582 55.7355 0.225902 56.3293 0.245117C67.6355 0.610897 78.0671 4.43246 86.6057 10.6865C77.6184 17.2695 66.5346 21.1592 54.5403 21.1592C42.5457 21.1591 31.4613 17.2699 22.4739 10.6865C31.3942 4.15263 42.3814 0.274229 54.2727 0.216797C54.3618 0.216365 54.451 0.215821 54.5403 0.21582Z" stroke="white" stroke-opacity="0.16" stroke-width="0.431763"/>
<path d="M54.5403 87.9199C66.5343 87.9199 77.6185 91.8088 86.6057 98.3916C78.067 104.646 67.6357 108.469 56.3293 108.835C55.7355 108.854 55.1388 108.863 54.5403 108.863C54.4511 108.863 54.3619 108.863 54.2727 108.862C42.3812 108.805 31.3943 104.926 22.4739 98.3916C31.4612 91.8085 42.5459 87.92 54.5403 87.9199Z" stroke="white" stroke-opacity="0.16" stroke-width="0.431763"/>
<path d="M54.5393 0.21582C55.1378 0.21582 55.7345 0.225902 56.3284 0.245117C67.7402 0.614293 78.2624 4.50297 86.845 10.8613C100.204 20.7585 108.864 36.6382 108.864 54.54C108.863 72.4417 100.204 88.3207 86.845 98.2178C78.2624 104.576 67.7402 108.465 56.3284 108.834C55.7345 108.853 55.1378 108.863 54.5393 108.863C54.469 108.863 54.3987 108.863 54.3284 108.862C35.4236 98.136 22.6694 77.8276 22.6692 54.54C22.6692 31.2521 35.4232 10.9421 54.3284 0.21582C54.3986 0.215553 54.469 0.215821 54.5393 0.21582Z" stroke="white" stroke-opacity="0.16" stroke-width="0.431763"/>
<path d="M54.54 0.21582C55.1203 0.215825 55.6985 0.225093 56.2744 0.243164C75.1535 10.9765 87.8867 31.2716 87.8867 54.54C87.8865 77.8081 75.1532 98.1016 56.2744 108.835C55.6985 108.853 55.1204 108.863 54.54 108.863C54.4507 108.863 54.3608 108.863 54.2715 108.862C42.2742 108.804 31.1969 104.858 22.2344 98.2178C8.87526 88.3207 0.215978 72.4417 0.21582 54.54C0.21582 36.6382 8.87514 20.7585 22.2344 10.8613C31.1969 4.22152 42.2742 0.274763 54.2715 0.216797C54.3607 0.216364 54.4507 0.21582 54.54 0.21582Z" stroke="white" stroke-opacity="0.16" stroke-width="0.431763"/>
<rect width="90.4595" height="27.4221" transform="translate(9.88403 42.918)" fill="#0A0D14"/>
<path d="M14.1172 65.1289V64.0511L15.0835 63.9025C15.3189 63.8653 15.4738 63.7848 15.5481 63.6609C15.6224 63.5246 15.6596 63.2892 15.6596 62.9547V54.1651C15.6596 53.843 15.6162 53.6262 15.5295 53.5147C15.4552 53.4032 15.2879 53.3289 15.0278 53.2918L14.1172 53.1617V52.0653H19.7849V53.1617L18.8186 53.2918C18.5957 53.3289 18.447 53.4094 18.3727 53.5333C18.2983 53.6572 18.2612 53.8926 18.2612 54.2395V63.0291C18.2612 63.3388 18.2983 63.5556 18.3727 63.6795C18.447 63.791 18.608 63.8653 18.8558 63.9025L19.7849 64.0511V65.1289H14.1172ZM26.3648 65.3891C25.6958 65.3891 25.0578 65.2838 24.4508 65.0732C23.8561 64.8502 23.3544 64.559 22.9456 64.1998L22.6669 65.2404H21.6448L21.3103 61.1708L22.5182 61.0221C22.6792 61.4805 22.8775 61.8955 23.1128 62.2672C23.3606 62.6388 23.6332 62.9485 23.9305 63.1963C24.2402 63.4441 24.5747 63.6361 24.9339 63.7724C25.3056 63.8963 25.6958 63.9582 26.1046 63.9582C26.5878 63.9582 26.9904 63.8901 27.3125 63.7538C27.6346 63.6051 27.8762 63.3945 28.0372 63.122C28.2107 62.837 28.2974 62.5088 28.2974 62.1371C28.2974 61.7159 28.2045 61.3566 28.0187 61.0593C27.8328 60.762 27.5293 60.5018 27.1081 60.2788C26.6993 60.0558 26.1604 59.839 25.4914 59.6284C24.872 59.4426 24.3269 59.2382 23.8561 59.0152C23.3854 58.7798 22.9828 58.5073 22.6483 58.1976C22.3262 57.8879 22.0784 57.5286 21.905 57.1198C21.7439 56.6986 21.6634 56.203 21.6634 55.6332C21.6634 55.2491 21.7191 54.8713 21.8306 54.4996C21.9421 54.128 22.1094 53.7811 22.3324 53.459C22.5677 53.1369 22.8527 52.852 23.1872 52.6042C23.534 52.3564 23.9367 52.1644 24.395 52.0281C24.8534 51.8795 25.3675 51.8051 25.9374 51.8051C26.5073 51.8051 27.0338 51.8919 27.5169 52.0653C28.0001 52.2387 28.4213 52.4741 28.7805 52.7714L29.0221 51.8051H30.007L30.4344 55.7261L29.2265 55.9305C29.0159 55.2615 28.7496 54.7226 28.4275 54.3138C28.1178 53.905 27.7647 53.6077 27.3683 53.4218C26.9718 53.2236 26.5382 53.1245 26.0675 53.1245C25.4728 53.1245 24.9897 53.2856 24.618 53.6077C24.2464 53.9298 24.0606 54.3634 24.0606 54.9084C24.0606 55.2925 24.1535 55.6208 24.3393 55.8933C24.5375 56.1659 24.841 56.4074 25.2498 56.618C25.6587 56.8287 26.1728 57.0393 26.7922 57.2499C27.4488 57.4605 28.0249 57.6896 28.5204 57.9374C29.0159 58.1728 29.4309 58.4453 29.7654 58.7551C30.1123 59.0648 30.3663 59.424 30.5273 59.8328C30.7008 60.2417 30.7875 60.7248 30.7875 61.2823C30.7875 61.9141 30.6698 62.484 30.4344 62.9919C30.199 63.4998 29.8769 63.9334 29.4681 64.2927C29.0593 64.652 28.5885 64.9245 28.0558 65.1103C27.5231 65.2962 26.9594 65.3891 26.3648 65.3891ZM38.3961 65.3891C37.0829 65.3891 35.9617 65.1165 35.0326 64.5714C34.1035 64.0139 33.3911 63.2459 32.8956 62.2672C32.4124 61.2761 32.1709 60.1364 32.1709 58.848C32.1709 57.3737 32.4372 56.1163 32.9699 55.0757C33.5026 54.0227 34.2521 53.2174 35.2184 52.6599C36.1971 52.0901 37.343 51.8051 38.6562 51.8051C39.8827 51.8051 40.9543 52.0653 41.871 52.5856C42.7878 53.1059 43.5001 53.8492 44.008 54.8155C44.5159 55.7818 44.7699 56.934 44.7699 58.2719C44.7699 59.3001 44.6212 60.2541 44.3239 61.1336C44.039 62.0008 43.624 62.7565 43.0789 63.4007C42.5338 64.0325 41.8648 64.5219 41.072 64.8687C40.2915 65.2156 39.3995 65.3891 38.3961 65.3891ZM38.619 63.8839C39.1765 63.8839 39.6659 63.7848 40.0871 63.5865C40.5083 63.3759 40.8552 63.06 41.1277 62.6388C41.4126 62.2176 41.6232 61.6725 41.7595 61.0036C41.9082 60.3346 41.9825 59.5417 41.9825 58.625C41.9825 57.7454 41.902 56.9711 41.7409 56.3021C41.5799 55.6332 41.3445 55.0757 41.0348 54.6297C40.7375 54.1713 40.3596 53.8306 39.9013 53.6077C39.4553 53.3847 38.9473 53.2732 38.3775 53.2732C37.82 53.2732 37.3245 53.3785 36.8909 53.5891C36.4573 53.7873 36.0918 54.1032 35.7945 54.5368C35.5096 54.958 35.2866 55.4969 35.1255 56.1535C34.9768 56.8101 34.9025 57.5782 34.9025 58.4577C34.9025 59.3373 34.983 60.1116 35.1441 60.7806C35.3175 61.4495 35.5653 62.0194 35.8874 62.4902C36.2095 62.9485 36.5997 63.2954 37.0581 63.5308C37.5165 63.7662 38.0368 63.8839 38.619 63.8839ZM49.2986 65.1289L49.1313 63.6795C50.0852 62.6884 50.8905 61.8274 51.5471 61.0965C52.216 60.3532 52.7611 59.709 53.1823 59.1639C53.6159 58.6188 53.9504 58.1294 54.1858 57.6958C54.4336 57.2622 54.607 56.8596 54.7061 56.488C54.8052 56.1039 54.8548 55.7075 54.8548 55.2987C54.8548 54.6297 54.6875 54.1094 54.353 53.7377C54.0186 53.3537 53.5416 53.1617 52.9222 53.1617C52.5258 53.1617 52.1727 53.2236 51.863 53.3475C51.5656 53.4714 51.3365 53.62 51.1754 53.7935C51.2993 53.9793 51.4046 54.1466 51.4913 54.2952C51.578 54.4315 51.64 54.5554 51.6771 54.6669C51.7267 54.7784 51.7515 54.8899 51.7515 55.0014C51.7515 55.2615 51.6338 55.5093 51.3984 55.7447C51.1754 55.9677 50.8595 56.0792 50.4507 56.0792C49.9675 56.0792 49.6083 55.9367 49.3729 55.6517C49.1499 55.3668 49.0384 55.0323 49.0384 54.6483C49.0384 54.1527 49.218 53.6944 49.5773 53.2732C49.9366 52.8396 50.4383 52.4865 51.0825 52.214C51.7391 51.9414 52.501 51.8051 53.3682 51.8051C54.223 51.8051 54.9601 51.9538 55.5795 52.2511C56.2113 52.5361 56.6945 52.9449 57.0289 53.4776C57.3758 54.0103 57.5493 54.6359 57.5493 55.3544C57.5493 55.7632 57.4935 56.1597 57.382 56.5437C57.2829 56.9278 57.1033 57.3366 56.8431 57.7702C56.583 58.1914 56.2237 58.6621 55.7653 59.1825C55.3193 59.7028 54.7495 60.2974 54.0557 60.9664C53.3744 61.623 52.5443 62.3849 51.5656 63.2521H54.3159C54.6628 63.2521 54.9477 63.2335 55.1707 63.1963C55.3937 63.1468 55.5733 63.06 55.7096 62.9362C55.8582 62.7999 55.9883 62.5955 56.0998 62.3229C56.2237 62.0504 56.3662 61.6849 56.5272 61.2265H57.8094L57.4378 65.1289H49.2986ZM61.1841 65.3519L60.8682 65.1475C60.8558 64.429 60.8991 63.6485 60.9982 62.8061C61.1097 61.9637 61.3265 61.0655 61.6486 60.1116C61.9831 59.1577 62.4539 58.1666 63.0609 57.1384C63.6803 56.1101 64.4918 55.0633 65.4952 53.9979H61.63C61.2832 53.9979 60.9982 54.0165 60.7752 54.0536C60.5522 54.0908 60.3664 54.1775 60.2178 54.3138C60.0815 54.4377 59.9576 54.6297 59.8461 54.8899C59.747 55.1376 59.6417 55.4783 59.5302 55.9119H58.2108L58.5267 52.0653H67.2792L67.4464 53.5519C66.7651 54.3819 66.1704 55.212 65.6625 56.042C65.1669 56.8596 64.7581 57.7268 64.436 58.6436C64.1139 59.5479 63.8847 60.5328 63.7485 61.5982C63.6122 62.6512 63.5564 63.8219 63.5812 65.1103L61.1841 65.3519ZM72.8422 65.3705C71.7272 65.3705 70.7981 65.0855 70.0548 64.5157C69.3239 63.9458 68.7726 63.1653 68.401 62.1743C68.0417 61.1708 67.8621 60.0373 67.8621 58.7736C67.8621 57.4852 68.0045 56.3951 68.2895 55.5031C68.5868 54.6111 68.977 53.8926 69.4602 53.3475C69.9433 52.8024 70.4884 52.4122 71.0954 52.1768C71.7025 51.929 72.3219 51.8051 72.9537 51.8051C73.8704 51.8051 74.6943 52.0405 75.4252 52.5113C76.1561 52.982 76.7384 53.7006 77.172 54.6669C77.6056 55.6208 77.8224 56.8472 77.8224 58.3462C77.8224 59.8824 77.6056 61.1708 77.172 62.2114C76.7508 63.2521 76.1623 64.0387 75.4066 64.5714C74.6633 65.1041 73.8085 65.3705 72.8422 65.3705ZM72.9723 64.0139C73.3439 64.0139 73.666 63.9148 73.9386 63.7166C74.2111 63.506 74.4403 63.1901 74.6261 62.7689C74.812 62.3353 74.9482 61.7778 75.035 61.0965C75.1341 60.4151 75.1836 59.5851 75.1836 58.6064C75.1836 57.6277 75.1279 56.7915 75.0164 56.0977C74.9173 55.3916 74.7686 54.8217 74.5704 54.3881C74.3722 53.9545 74.1244 53.6386 73.8271 53.4404C73.5422 53.2298 73.2015 53.1245 72.805 53.1245C72.4582 53.1245 72.1423 53.2112 71.8573 53.3847C71.5724 53.5581 71.3308 53.8492 71.1326 54.2581C70.9344 54.6545 70.7795 55.1996 70.668 55.8933C70.5689 56.5747 70.5194 57.4295 70.5194 58.4577C70.5194 59.3621 70.5689 60.1611 70.668 60.8549C70.7795 61.5486 70.9344 62.1309 71.1326 62.6017C71.3432 63.06 71.5972 63.4131 71.8945 63.6609C72.2042 63.8963 72.5635 64.0139 72.9723 64.0139ZM83.6492 65.3705C82.5342 65.3705 81.6051 65.0855 80.8618 64.5157C80.1309 63.9458 79.5796 63.1653 79.2079 62.1743C78.8487 61.1708 78.669 60.0373 78.669 58.7736C78.669 57.4852 78.8115 56.3951 79.0964 55.5031C79.3938 54.6111 79.784 53.8926 80.2671 53.3475C80.7503 52.8024 81.2954 52.4122 81.9024 52.1768C82.5095 51.929 83.1289 51.8051 83.7607 51.8051C84.6774 51.8051 85.5013 52.0405 86.2322 52.5113C86.9631 52.982 87.5454 53.7006 87.9789 54.6669C88.4125 55.6208 88.6293 56.8472 88.6293 58.3462C88.6293 59.8824 88.4125 61.1708 87.9789 62.2114C87.5577 63.2521 86.9693 64.0387 86.2136 64.5714C85.4703 65.1041 84.6155 65.3705 83.6492 65.3705ZM83.7793 64.0139C84.1509 64.0139 84.473 63.9148 84.7456 63.7166C85.0181 63.506 85.2473 63.1901 85.4331 62.7689C85.619 62.3353 85.7552 61.7778 85.8419 61.0965C85.9411 60.4151 85.9906 59.5851 85.9906 58.6064C85.9906 57.6277 85.9349 56.7915 85.8234 56.0977C85.7243 55.3916 85.5756 54.8217 85.3774 54.3881C85.1792 53.9545 84.9314 53.6386 84.6341 53.4404C84.3491 53.2298 84.0085 53.1245 83.612 53.1245C83.2651 53.1245 82.9492 53.2112 82.6643 53.3847C82.3794 53.5581 82.1378 53.8492 81.9396 54.2581C81.7414 54.6545 81.5865 55.1996 81.475 55.8933C81.3759 56.5747 81.3264 57.4295 81.3264 58.4577C81.3264 59.3621 81.3759 60.1611 81.475 60.8549C81.5865 61.5486 81.7414 62.1309 81.9396 62.6017C82.1502 63.06 82.4042 63.4131 82.7015 63.6609C83.0112 63.8963 83.3704 64.0139 83.7793 64.0139ZM89.476 65.1289V64.0511L90.9812 63.8095C91.2166 63.7724 91.3714 63.6918 91.4458 63.568C91.5201 63.4317 91.5573 63.2211 91.5573 62.9362V54.704C91.5573 54.3819 91.5201 54.1527 91.4458 54.0165C91.3838 53.8678 91.1732 53.7749 90.814 53.7377L89.3831 53.5891L89.5132 52.5113L93.8429 51.8423L94.1588 52.1025V62.9919C94.1588 63.2768 94.196 63.475 94.2703 63.5865C94.3447 63.698 94.4995 63.7786 94.7349 63.8281L96.1286 64.0511V65.1289H89.476Z" fill="white" fill-opacity="0.5"/>
</svg>
