<svg width="59" height="28" viewBox="0 0 59 28" fill="none" xmlns="http://www.w3.org/2000/svg">
<path d="M22.4344 0.327637H3.61475V3.0165H22.4344V0.327637Z" fill="white"/>
<path d="M19.7455 13.7694H22.4344V11.0806H3.61475V13.7694H6.30243V24.5237H3.61475V27.2126H8.99129V13.7694H11.6801V27.2126H14.3678V13.7694H17.0567V27.2126H22.4344V24.5237H19.7455V13.7694Z" fill="white"/>
<path d="M25.1137 5.70447H0.91748V8.39333H25.1137V5.70447Z" fill="white"/>
<path d="M31.6996 7.7018V8.93262H27.7764V3.15015H29.2462V7.7018H31.6996Z" fill="white"/>
<path d="M36.5886 7.09002H33.4583C33.5991 7.61903 33.979 7.91845 34.5068 7.91845C34.7056 7.91683 34.9021 7.87584 35.0849 7.79783C35.2677 7.71983 35.4333 7.60636 35.572 7.464L36.3235 8.19894C35.869 8.69481 35.2004 8.98477 34.3826 8.98477C32.9281 8.98477 32.0156 8.07586 32.0156 6.72077C32.0156 5.34084 32.9624 4.43311 34.3376 4.43311C35.9116 4.43074 36.688 5.46274 36.5886 7.09002ZM35.2181 6.32194C35.2181 5.77636 34.8702 5.42131 34.3589 5.42131C33.8476 5.42131 33.5305 5.78464 33.4334 6.32194H35.2181Z" fill="white"/>
<path d="M41.6277 8.52767C41.6277 9.79163 40.6525 10.5928 39.2158 10.5928C38.5114 10.5934 37.8222 10.3877 37.2334 10.0011L37.7281 9.0342C38.1329 9.31799 38.6137 9.47345 39.1081 9.48037C39.7933 9.48037 40.2063 9.11704 40.2063 8.56436V8.09097C40.0557 8.28441 39.861 8.43904 39.6384 8.54197C39.4159 8.6449 39.172 8.69315 38.927 8.68271C37.8027 8.68271 37.0098 7.8235 37.0098 6.52641C37.0098 5.26364 37.7778 4.42101 38.8939 4.42101C39.4631 4.41272 39.9093 4.62693 40.2063 5.01275V4.479H41.6265L41.6277 8.52767ZM40.2075 6.5773C40.2075 5.92521 39.8359 5.48732 39.2832 5.48732C38.7305 5.48732 38.3364 5.93349 38.3364 6.5773C38.3364 7.22112 38.7163 7.66019 39.2832 7.66019C39.8501 7.66019 40.2063 7.21402 40.2063 6.5773H40.2075Z" fill="white"/>
<path d="M46.6588 6.02457V8.93237H45.2623V8.41993C44.9736 8.79982 44.5025 8.99865 43.9002 8.99865C42.9534 8.99865 42.3711 8.41993 42.3711 7.60215C42.3711 6.75951 42.9747 6.26363 44.0812 6.25535H45.2541V6.19499C45.2541 5.7571 44.9653 5.49319 44.3866 5.49319C43.9214 5.51665 43.4674 5.6436 43.0575 5.8648L42.6528 4.91802C43.3463 4.59611 43.9735 4.41504 44.7179 4.41504C45.9405 4.41977 46.6506 5.01151 46.6588 6.02457ZM45.2541 7.41989V7.02342H44.3534C43.9238 7.02342 43.7096 7.17254 43.7096 7.50273C43.7096 7.83292 43.9404 8.03175 44.3369 8.03175C44.783 8.03175 45.1629 7.78322 45.2541 7.41989Z" fill="white"/>
<path d="M47.7192 8.9312V2.80078H49.1489V8.9312H47.7192Z" fill="white"/>
<path d="M30.9729 12.1691V16.7705H29.5019V12.1691H27.7764V10.9797H32.7162V12.1691H30.9729Z" fill="white"/>
<path d="M37.0022 14.9269H33.8719C34.0127 15.4559 34.3926 15.7554 34.9204 15.7554C35.1192 15.7538 35.3157 15.7128 35.4985 15.6347C35.6813 15.5567 35.8468 15.4433 35.9856 15.3009L36.7371 16.037C36.2826 16.5329 35.6139 16.8217 34.7962 16.8217C33.3417 16.8217 32.4292 15.9128 32.4292 14.5577C32.4292 13.1789 33.376 12.27 34.7512 12.27C36.3228 12.2677 37.1016 13.2961 37.0022 14.9269ZM35.6317 14.1589C35.6317 13.6145 35.2838 13.2582 34.7725 13.2582C34.2612 13.2582 33.9441 13.6227 33.847 14.1589H35.6317Z" fill="white"/>
<path d="M41.6993 13.2668L40.6745 13.8882C40.5746 13.7425 40.4402 13.624 40.2832 13.5432C40.1262 13.4624 39.9515 13.422 39.775 13.4254C39.2211 13.4254 38.8412 13.8799 38.8412 14.5485C38.8412 15.2172 39.2211 15.6811 39.775 15.6811C39.9585 15.6914 40.1411 15.6495 40.3018 15.5603C40.4624 15.4711 40.5945 15.3382 40.6827 15.177L41.7242 15.7876C41.3609 16.4409 40.6413 16.8208 39.7005 16.8208C38.3288 16.8208 37.4033 15.9119 37.4033 14.5568C37.4033 13.2017 38.3371 12.2692 39.717 12.2692C40.6011 12.268 41.3112 12.6313 41.6993 13.2668Z" fill="white"/>
<path d="M47.0277 13.9634V16.7718H45.5981V14.3634C45.5981 13.8427 45.301 13.5208 44.8134 13.5208C44.2525 13.5208 43.9057 13.967 43.9057 14.5776V16.7754H42.4761V10.6426H43.9104V13.0545C44.2241 12.5255 44.7389 12.2616 45.4052 12.2533C46.3839 12.2533 47.0277 12.922 47.0277 13.9634Z" fill="white"/>
<path d="M31.6996 21.8434V23.0754H27.7764V17.2917H29.2462V21.8434H31.6996Z" fill="white"/>
<path d="M36.8821 20.8461C36.8821 22.2178 35.9069 23.1255 34.4524 23.1255C32.9979 23.1255 32.0156 22.2178 32.0156 20.8461C32.0156 19.4745 32.9908 18.5739 34.4524 18.5739C35.914 18.5739 36.8821 19.4745 36.8821 20.8461ZM33.45 20.8627C33.45 21.5562 33.8547 22.019 34.4489 22.019C35.043 22.019 35.4406 21.5562 35.4406 20.8627C35.4406 20.1692 35.0359 19.7064 34.4489 19.7064C33.8618 19.7064 33.4535 20.1775 33.4535 20.8627H33.45Z" fill="white"/>
<path d="M41.9966 23.0768H40.5682V22.3407C40.2617 22.8697 39.767 23.1336 39.122 23.1336C38.1551 23.1336 37.5278 22.4732 37.5278 21.433V18.6222H38.9575V21.0258C38.9575 21.5548 39.2462 21.8768 39.7007 21.8768C40.2451 21.8685 40.5682 21.4235 40.5682 20.8199V18.6222H41.9966V23.0768Z" fill="white"/>
<path d="M47.682 20.2654V23.075H46.2619V20.6619C46.2619 20.1423 45.9565 19.8192 45.4772 19.8192C44.9565 19.8192 44.6263 20.1908 44.5683 20.7198V23.075H43.1387V18.6204H44.5683V19.3482C44.8819 18.8275 45.3967 18.5624 46.0548 18.5541C47.0382 18.5553 47.682 19.2251 47.682 20.2654Z" fill="white"/>
<path d="M52.9407 22.6705C52.9407 23.9344 51.9655 24.7368 50.5276 24.7368C49.8232 24.7373 49.1341 24.5316 48.5452 24.1451L49.0411 23.1782C49.4459 23.462 49.9267 23.6174 50.4211 23.6243C51.1063 23.6243 51.5193 23.261 51.5193 22.7071V22.2338C51.3685 22.4274 51.1736 22.5821 50.9509 22.685C50.7281 22.788 50.484 22.8361 50.2388 22.8255C49.1157 22.8255 48.3228 21.9663 48.3228 20.6692C48.3228 19.4052 49.0908 18.5626 50.2057 18.5626C50.7761 18.5543 51.2223 18.7697 51.5193 19.1543V18.6218H52.9395L52.9407 22.6705ZM51.5205 20.7213C51.5205 20.0692 51.1489 19.6313 50.595 19.6313C50.0412 19.6313 49.6483 20.0775 49.6483 20.7213C49.6483 21.3651 50.0281 21.8042 50.595 21.8042C51.1619 21.8042 51.5193 21.358 51.5193 20.7213H51.5205Z" fill="white"/>
<path d="M58.2375 21.2335H55.106C55.2469 21.7626 55.6268 22.062 56.1558 22.062C56.3545 22.0604 56.551 22.0194 56.7338 21.9413C56.9166 21.8633 57.0822 21.7499 57.2209 21.6075L57.9724 22.3425C57.5191 22.8383 56.8493 23.1271 56.0315 23.1271C54.5782 23.1271 53.6646 22.2194 53.6646 20.8643C53.6646 19.4844 54.6113 18.5754 55.9853 18.5754C57.5594 18.5731 58.3405 19.6063 58.2375 21.2335ZM56.8659 20.4655C56.8659 19.9199 56.5191 19.5648 56.0067 19.5648C55.4942 19.5648 55.1782 19.9282 55.0812 20.4655H56.8659Z" fill="white"/>
</svg>
