<svg width="44" height="44" viewBox="0 0 44 44" fill="none" xmlns="http://www.w3.org/2000/svg">
<rect width="44" height="43.225" rx="21.6125" fill="#38C793"/>
<path d="M19.2885 24.775L27.7635 16.3C27.9635 16.1 28.1968 16 28.4635 16C28.7301 16 28.9635 16.1 29.1635 16.3C29.3635 16.5 29.4635 16.7377 29.4635 17.013C29.4635 17.2883 29.3635 17.5257 29.1635 17.725L19.9885 26.925C19.7885 27.125 19.5551 27.225 19.2885 27.225C19.0218 27.225 18.7885 27.125 18.5885 26.925L14.2885 22.625C14.0885 22.425 13.9925 22.1877 14.0005 21.913C14.0085 21.6383 14.1128 21.4007 14.3135 21.2C14.5141 20.9993 14.7518 20.8993 15.0265 20.9C15.3011 20.9007 15.5385 21.0007 15.7385 21.2L19.2885 24.775Z" fill="white"/>
</svg>
