<svg width="32" height="32" viewBox="0 0 32 32" fill="none" xmlns="http://www.w3.org/2000/svg">
<path d="M10.2743 2.27246C8.80348 2.34186 7.79904 2.57658 6.92096 2.92163C6.01218 3.27579 5.24192 3.75105 4.47553 4.52021C3.70914 5.28936 3.23719 6.06018 2.88552 6.97034C2.54518 7.85036 2.31459 8.85563 2.24962 10.3273C2.18465 11.799 2.17027 12.272 2.17746 16.026C2.18465 19.78 2.20124 20.2506 2.27257 21.7253C2.3428 23.1959 2.57669 24.2 2.92174 25.0784C3.27645 25.9872 3.75116 26.7572 4.52059 27.5238C5.29003 28.2905 6.06029 28.7613 6.97266 29.1136C7.85185 29.4533 8.85739 29.685 10.3288 29.7495C11.8002 29.8139 12.2738 29.8288 16.0267 29.8216C19.7796 29.8144 20.2521 29.7978 21.7265 29.7279C23.201 29.6579 24.1999 29.4224 25.0785 29.079C25.9873 28.7234 26.7578 28.2496 27.5239 27.4799C28.29 26.7102 28.7617 25.9388 29.1131 25.0281C29.4537 24.1489 29.6851 23.1433 29.749 21.673C29.8134 20.1975 29.8286 19.7264 29.8214 15.9729C29.8143 12.2195 29.7974 11.7489 29.7274 10.2748C29.6575 8.80061 29.4233 7.79949 29.0786 6.92057C28.7233 6.0118 28.2491 5.24236 27.48 4.47514C26.7108 3.70792 25.9389 3.23653 25.0285 2.88596C24.1487 2.54562 23.1437 2.31366 21.6723 2.25007C20.2009 2.18648 19.7273 2.17017 15.9731 2.17735C12.2188 2.18454 11.7488 2.20058 10.2743 2.27246ZM10.4358 27.2626C9.08797 27.2039 8.35614 26.98 7.86844 26.7925C7.22259 26.5437 6.76254 26.2429 6.27649 25.7616C5.79045 25.2802 5.49185 24.8185 5.23971 24.174C5.05032 23.6863 4.82223 22.9553 4.75919 21.6075C4.69063 20.1508 4.67625 19.7134 4.66823 16.0227C4.66021 12.332 4.67431 11.8952 4.73818 10.4379C4.79569 9.09118 5.02102 8.35852 5.20819 7.8711C5.45702 7.22442 5.75672 6.76519 6.23917 6.27942C6.72162 5.79366 7.18195 5.49451 7.82697 5.24236C8.31412 5.05215 9.04512 4.82599 10.3924 4.76185C11.8502 4.69273 12.2871 4.67891 15.9772 4.67089C19.6673 4.66287 20.1053 4.67669 21.5637 4.74084C22.9104 4.79945 23.6433 5.02257 24.1302 5.21085C24.7763 5.45967 25.2361 5.75854 25.7219 6.24182C26.2076 6.7251 26.5071 7.18378 26.7592 7.83018C26.9497 8.31594 27.1758 9.04667 27.2394 10.3948C27.3088 11.8526 27.3246 12.2897 27.3312 15.9796C27.3379 19.6694 27.3249 20.1076 27.261 21.5644C27.2021 22.9122 26.9787 23.6443 26.791 24.1326C26.5422 24.7781 26.2422 25.2385 25.7595 25.724C25.2767 26.2095 24.817 26.5086 24.1717 26.7607C23.6851 26.9507 22.9532 27.1774 21.6071 27.2415C20.1492 27.3101 19.7124 27.3245 16.0209 27.3325C12.3294 27.3405 11.8937 27.3256 10.4358 27.2626ZM21.7052 8.61122C21.7058 8.93933 21.8036 9.25992 21.9864 9.53242C22.1691 9.80492 22.4286 10.0171 22.7319 10.1421C23.0353 10.2672 23.3689 10.2994 23.6906 10.2348C24.0123 10.1703 24.3076 10.0117 24.5392 9.77929C24.7708 9.54685 24.9282 9.25096 24.9917 8.92903C25.0551 8.6071 25.0216 8.2736 24.8954 7.9707C24.7693 7.6678 24.5562 7.40912 24.283 7.22736C24.0098 7.04561 23.6889 6.94895 23.3608 6.9496C22.9209 6.95048 22.4994 7.12602 22.1889 7.43762C21.8785 7.74922 21.7045 8.17136 21.7052 8.61122ZM8.90163 16.0133C8.90937 19.9337 12.0933 23.1046 16.0129 23.0972C19.9325 23.0897 23.1056 19.9061 23.0981 15.9857C23.0906 12.0652 19.9059 8.8935 15.9858 8.90124C12.0656 8.90899 8.89416 12.0934 8.90163 16.0133ZM11.3916 16.0083C11.3898 15.097 11.6583 14.2055 12.1631 13.4467C12.6679 12.6879 13.3864 12.0959 14.2277 11.7455C15.0691 11.395 15.9954 11.3019 16.8896 11.478C17.7838 11.654 18.6058 12.0912 19.2515 12.7344C19.8972 13.3776 20.3377 14.1978 20.5173 15.0913C20.6968 15.9848 20.6074 16.9115 20.2603 17.7542C19.9132 18.5969 19.324 19.3177 18.5672 19.8256C17.8105 20.3334 16.9201 20.6054 16.0087 20.6072C15.4036 20.6085 14.8041 20.4905 14.2445 20.2601C13.685 20.0297 13.1763 19.6912 12.7475 19.2642C12.3188 18.8371 11.9783 18.3298 11.7457 17.7711C11.513 17.2125 11.3927 16.6135 11.3916 16.0083Z" fill="white"/>
</svg>
