<svg width="32" height="32" viewBox="0 0 32 32" fill="none" xmlns="http://www.w3.org/2000/svg">
<g clip-path="url(#clip0_91_30031)">
<path d="M25.6018 25.3141H21.595V19.1011C21.595 17.6195 21.5683 15.7123 19.5111 15.7123C17.4242 15.7123 17.1049 17.3265 17.1049 18.9932V25.3137H13.098V12.5372H16.9446V14.2832H16.9984C17.3834 13.6315 17.9397 13.0954 18.608 12.732C19.2763 12.3685 20.0317 12.1914 20.7937 12.2194C24.8547 12.2194 25.6035 14.8643 25.6035 18.3051L25.6018 25.3141ZM8.57703 10.7907C8.11715 10.7908 7.66756 10.6558 7.28513 10.4029C6.90271 10.15 6.60464 9.7905 6.42857 9.36984C6.25251 8.94918 6.20636 8.48627 6.296 8.03965C6.38564 7.59303 6.60703 7.18276 6.93215 6.86072C7.25728 6.53868 7.67156 6.31933 8.12259 6.23041C8.57362 6.1415 9.04114 6.18701 9.46604 6.36119C9.89095 6.53537 10.2542 6.8304 10.5097 7.20896C10.7653 7.58753 10.9017 8.03264 10.9018 8.48799C10.9019 8.79033 10.8418 9.08972 10.725 9.36907C10.6082 9.64842 10.437 9.90226 10.2211 10.1161C10.0052 10.3299 9.74889 10.4995 9.46681 10.6153C9.18472 10.731 8.88238 10.7907 8.57703 10.7907ZM10.5804 25.3141H6.56945V12.5372H10.5804V25.3141ZM27.5994 2.50182H4.55603C4.03301 2.49598 3.52902 2.69597 3.15485 3.05786C2.78067 3.41975 2.56693 3.91391 2.56055 4.43178V27.3429C2.56671 27.861 2.78033 28.3555 3.15449 28.7177C3.52865 29.08 4.03275 29.2804 4.55603 29.2749H27.5994C28.1237 29.2814 28.6292 29.0816 29.0049 28.7193C29.3805 28.3571 29.5956 27.862 29.6028 27.3429V4.43013C29.5953 3.91124 29.3801 3.4165 29.0045 3.05463C28.6288 2.69275 28.1235 2.49333 27.5994 2.50017" fill="white"/>
</g>
<defs>
<clipPath id="clip0_91_30031">
<rect width="30" height="26" fill="white" transform="translate(1 3)"/>
</clipPath>
</defs>
</svg>
